<?xml version="1.0" encoding="utf-8"?>
<!-- Generator: Adobe Illustrator 19.2.1, SVG Export Plug-In . SVG Version: 6.00 Build 0)  -->
<svg version="1.1" id="Layer_1" xmlns="http://www.w3.org/2000/svg" xmlns:xlink="http://www.w3.org/1999/xlink" x="0px" y="0px"
	 width="864px" height="864px" viewBox="0 0 864 864" style="fill: #000 !important" enable-background="new 0 0 864 864" xml:space="preserve">
<metadata><?xpacket begin="﻿" id="W5M0MpCehiHzreSzNTczkc9d"?>                                                                                                    
                           
<?xpacket end="w"?>
	</metadata>
<g>
	<g>
		<path fill="rgb(102, 0, 0)" d="M335.1509,150.0978c9.1711-3.1697,8.9038-3.7452,17.3335-11.7065
			c8.4297-7.9617,8.748-9.9406,16.386-20.1391c7.6372-10.1989,14.165-20.6558,14.165-20.6558s-3.4524,5.3557-8.6384,9.1104
			c-5.1858,3.7547-3.6785,2.7367-12.1055,5.9083c-8.4277,3.1716-11.9458,2.5239-22.0481,5.819
			c-10.3022,3.3602-12.6104,3.2247-19.1765,10.9354c-6.8271,8.0164-4.6094,9.0568-11.4224,15.1702
			c-5.2681,4.7273-11.8618,8.1652-14.5894,9.4857c-0.0393-0.077-0.0786-0.1505-0.1177-0.2429l-0.0122,0.004
			c-18.6057,8.5711-36.2219,18.8349-52.6287,30.5943c1.3931-2.3671,4.0396-6.1881,7.0444-8.027
			c4.6758-2.8616,13.3738-5.5345,19.4341-13.1119c6.0603-7.5775,5.5271-7.9212,8.4021-19.154
			c2.8748-11.2335,2.0869-13.0765,3.0977-25.7776c1.011-12.7011,0.9453-25.028,0.9453-25.028s-0.0586,6.3722-2.438,12.3162
			c-2.3792,5.944-1.6484,4.2784-7.0793,11.4604c-5.4312,7.1818-8.7517,8.5133-15.5327,16.6943
			c-6.9153,8.3421-8.9387,9.4603-10.3723,19.4859c-1.4902,10.4244,2.4829,12.0158-0.0122,20.8229
			c-1.3496,4.764-4.2915,9.3926-6.7124,12.6497c-23.4932,17.2896-44.406,37.7022-62.0532,60.6738
			c0.0989-1.8618,0.9478-8.424,3.5762-12.2458c3.2019-4.6558,10.1772-10.87,12.8376-20.471
			c2.6602-9.6014,2.0371-9.6886,0.3586-21.2878c-1.6787-11.5983-3.113-12.9589-7.0725-25.1092
			c-3.9595-12.1501-8.7654-23.4909-8.7654-23.4909s2.3989,5.9014,2.4976,12.4092c0.0986,6.5076,0.1296,4.6565-2.1035,13.6215
			c-2.2329,8.9644-4.7761,11.6242-7.8674,22.0928c-3.1523,10.6754-4.5842,12.5792-2.0437,22.4435
			c2.6416,10.2561,6.9104,10.011,8.0046,19.2094c0.679,5.7062-0.769,12.1262-1.9663,16.18
			c-16.3708,21.9355-29.7834,46.1384-39.6606,72.1381c-1.9646-2.8616-5.5718-9.0562-5.5896-13.772
			c-0.0249-6.5742,2.1665-17.8736-1.1326-27.7525c-3.2988-9.8784-3.8621-9.3636-11.8772-16.7308
			c-8.0161-7.3674-9.9749-7.0757-20.1841-12.7376c-10.2087-5.6617-20.6521-9.9099-20.6521-9.9099s5.3508,2.306,9.1533,7.2265
			c3.8025,4.9211,2.7698,3.4661,6.0571,12.4564c3.2874,8.9903,2.7131,13.4136,6.1536,24.363
			c3.5081,11.1661,3.4175,13.9692,11.1506,19.1953c8.041,5.4337,11.417,1.2594,17.5781,7.3226
			c5.3445,5.259,7.1042,13.3387,7.4771,15.3896c-11.2756,31.4023-17.4309,65.3345-17.4309,101.0081
			c0,3.9138,0.0942,7.8051,0.2397,11.6835c-1.6492-2.4774-3.4043-5.6509-4.2544-8.8387
			c-1.9058-7.1461-3.0186-19.8181-9.0381-29.9886c-6.0195-10.171-6.417-9.5131-16.2813-16.1306
			c-9.8647-6.6173-11.6768-5.959-23.1755-10.3395c-11.499-4.3805-22.8201-7.1826-22.8201-7.1826s5.8374,1.5764,10.925,6.2663
			c5.0879,4.6894,3.6721,3.2867,9.4255,12.4928c5.7532,9.2057,6.4636,14.1165,12.926,25.4269
			c6.5896,11.5339,7.304,14.5986,16.2825,18.9363c9.3354,4.5101,11.4077-0.6182,19.1045,4.9039
			c2.8215,2.0242,5.166,4.7082,7.0068,7.2967c1.9751,42.2956,12.5422,82.3542,29.9724,118.4947
			c-3.4453-2.291-8.073-5.8936-10.7957-9.9172c-4.9041-7.2461-10.5132-20.7451-21.9939-30.1074
			c-11.4807-9.3627-11.8101-8.531-27.3757-12.9141s-17.8208-3.1443-34.8892-4.6184c-17.0686-1.474-33.3853-1.2778-33.3853-1.2778
			s8.4556,0.0422,16.8967,3.6953c8.4409,3.6531,6.0605,2.5302,16.8674,10.9167c10.8074,8.3867,13.3613,13.5377,25.813,24.0159
			c12.6975,10.6846,14.6606,13.8217,28.2844,15.9729c14.165,2.2368,15.3291-3.9509,27.5911-0.1399
			c5.8879,1.8301,11.0283,5.1283,14.7859,8.064c12.4861,25.0255,28.2844,48.1155,46.8279,68.687
			c2.6765-0.6104,5.356-1.2073,8.0388-1.7896c-18.3096-19.7833-33.9773-42.0435-46.4639-66.2119
			c-0.0396-4.458,0.4937-14.0603,5.1379-22.5488c6.2961-11.5067,12.1326-8.0811,21.1394-19.8801
			c8.6619-11.3479,7.6482-14.9325,8.7776-31.4962c1.1074-16.2424-1.0669-21.6455,0.46-35.2552
			c1.5271-13.6097,0.6113-11.1113,4.1221-19.7425c3.5107-8.6314,9.9211-14.7831,9.9211-14.7831S193,434.3028,181.1709,447.6774
			c-11.8291,13.3745-14.5383,14.1534-22.8943,28.4468c-8.3567,14.2935-9.2725,13.958-10.5325,28.7281
			c-1.26,14.7701,5.2637,28.1433,7.3232,36.6912c1.9578,8.1243-1.321,19.4387-1.6184,19.6418
			c0.0112,0.0251,0.0215,0.0479,0.0325,0.0729c-0.0117-0.0238-0.0237-0.0477-0.0354-0.0715
			c0.001-0.0005,0.0017-0.0006,0.0029-0.0013c-0.0081-0.0181-0.0154-0.0343-0.0234-0.0525
			c-0.0002,0.0092,0.0017,0.0096,0.002,0.0168c-19.1069-38.8119-30.0596-82.3485-30.637-128.3857
			c1.9856-3.735,5.4431-8.9205,10.7334-12.652c9.1973-6.4875,12.834-1.6768,24.3726-7.377
			c11.0977-5.4822,11.5034-8.6144,18.1841-20.9159c6.551-12.0632,6.6277-17.025,12.6118-26.9086s4.3604-8.3067,10.2573-13.6262
			c5.897-5.319,13.3306-7.6505,13.3306-7.6505s-14.4617,4.2685-28.8811,10.1251c-14.4194,5.8566-16.9285,5.4427-28.7964,13.3013
			c-11.8679,7.8588-12.5081,7.259-18.6738,18.1337c-6.1663,10.8747-5.4128,23.5827-6.6758,30.9183
			c-0.8442,4.9039-4.3733,10.0422-6.5068,12.6821c0.0183-38.9786,7.4814-76.215,21.0378-110.3748
			c3.2798-3.897,8.9834-9.742,15.2515-11.9667c9.7554-3.4631,11.8032,1.6415,23.4438-0.5623
			c11.1958-2.1196,12.3245-4.7703,21.2725-13.9474c8.7744-8.9988,10.0596-13.3354,17.7959-20.558
			c7.7366-7.2234,5.9082-6.2333,12.448-9.4714c6.5393-3.2381,13.7097-3.481,13.7097-3.481s-13.8838,0.2383-28.1196,1.8809
			c-14.2358,1.6425-16.3623,0.6703-28.8247,4.6892c-12.4622,4.0189-12.8835,3.337-21.0254,11.3862
			c-8.1411,8.0492-10.5901,19.3859-13.5107,25.5176c-2.2378,4.6982-7.6812,8.8138-9.865,10.2173
			c12.5112-29.5407,29.6326-56.654,50.448-80.4598c3.364-1.3949,8.1855-2.9155,13.625-3.1317
			c10.3462-0.4111,10.8496,3.841,22.6436,4.7852c11.3433,0.9081,13.1836-0.8135,24.3901-5.6544
			c10.989-4.7472,13.4626-7.6879,22.9482-11.3445c9.4858-3.6566,7.4495-3.3259,14.6467-4.2834
			c7.1975-0.9576,14.1428,0.4532,14.1428,0.4532s-13.3826-2.9042-27.5042-4.842c-14.1218-1.9377-15.8823-3.1328-28.9836-2.9089
			c-13.1011,0.2238-13.3096-0.377-23.4204,3.8042c-10.1099,4.1813-15.7021,12.0715-20.2578,15.9858
			c-2.7041,2.3233-7.1631,3.9623-10.1951,4.8429c3.803-4.2613,7.7109-8.4271,11.7485-12.4648
			c15.7874-15.7873,33.5186-30.0499,52.6311-42.1882c3.2654-0.9523,9.8235-2.4,17.0308-1.3555
			c10.2473,1.485,9.9658,5.7575,21.3892,8.8394c10.9863,2.9641,13.1106,1.6075,25.0125-1.1059
			c11.6711-2.6608,14.6394-5.1005,24.6338-6.9636c9.9939-1.8632,7.9314-1.9097,15.1831-1.5369
			c7.2515,0.3728,13.8228,3.0281,13.8228,3.0281s-12.627-5.299-26.1577-9.7828c-13.531-4.4838-15.0432-5.9802-27.9656-8.1523
			c-12.9211-2.1721-13.0176-2.801-23.7217-0.5361c-10.7036,2.2648-17.6428,9.0018-22.8354,12.0173
			c-3.5938,2.0873-9.3604,2.8244-12.3267,3.017c9.9114-6.0762,20.1714-11.5891,30.717-16.437
			c-0.0374-0.0687-0.0745-0.1207-0.1116-0.1802c3.2388-1.1763,9.8096-4.4335,13.8252-4.3765
			C317.1997,151.2704,325.9805,153.2674,335.1509,150.0978z"/>
		<path fill="rgb(102, 0, 0)" d="M810.9268,506.7517c-17.6206,1.474-19.9487,0.2354-36.0181,4.6184s-16.4082,3.5513-28.2607,12.9141
			c-11.8516,9.3623-17.6431,22.8613-22.7048,30.1075c-2.8098,4.0223-7.585,7.6239-11.1414,9.9152
			c17.9907-36.137,28.895-76.1931,30.9353-118.4833c1.9014-2.5914,4.324-5.2794,7.2405-7.3061
			c7.9458-5.522,10.0847-0.3939,19.7224-4.9039c9.2688-4.3376,10.0063-7.4025,16.8098-18.9363
			c6.6714-11.3105,7.4048-16.2213,13.3447-25.4269c5.9397-9.2061,4.478-7.8034,9.7305-12.4928
			c5.2522-4.6899,11.2783-6.2663,11.2783-6.2663s-11.687,2.8021-23.5579,7.1826s-13.7415,3.7222-23.9253,10.3397
			c-10.1831,6.6173-10.5935,5.9596-16.8074,16.1306c-6.2141,10.1705-7.3633,22.8425-9.3303,29.9886
			c-0.8787,3.1926-2.6948,6.3706-4.3997,8.8495c0.1504-3.8828,0.2463-7.7791,0.2463-11.6974
			c0-35.6715-6.3538-69.6019-17.9924-101.0026c0.384-2.047,2.2-10.1312,7.7192-15.3923c6.3604-6.0632,9.8457-1.8889,18.1465-7.3226
			c7.9834-5.2261,7.8896-8.0292,11.5115-19.1953c3.5515-10.9494,2.959-15.3727,6.3525-24.363
			c3.3936-8.9901,2.3274-7.5352,6.2529-12.4563c3.9255-4.9206,9.4495-7.2265,9.4495-7.2265s-10.781,4.2481-21.3208,9.9099
			c-10.5391,5.6618-12.5623,5.3702-20.8357,12.7375c-8.2747,7.3672-8.856,6.8524-12.2622,16.7308
			c-3.4058,9.8789-1.1433,21.1783-1.1692,27.7525c-0.0183,4.7162-3.7429,10.9117-5.771,13.7729
			c-10.196-25.9991-24.0415-50.2015-40.9407-72.1366c-1.2361-4.0536-2.7322-10.4764-2.0313-16.1847
			c1.1296-9.1983,5.5366-8.9532,8.2637-19.2094c2.6228-9.8643,1.1445-11.7679-2.1099-22.4435
			c-3.1912-10.4686-5.8167-13.1284-8.1221-22.0928c-2.3054-8.9649-2.2732-7.1139-2.1714-13.6215
			c0.1018-6.5078,2.5786-12.4092,2.5786-12.4092s-4.9614,11.3408-9.0491,23.491c-4.0874,12.1503-5.5684,13.5108-7.3013,25.1091
			c-1.7327,11.5992-2.376,11.6864,0.3701,21.2878c2.7466,9.601,9.9475,15.8152,13.252,20.471
			c2.7148,3.8233,3.5906,10.3887,3.6919,12.2477c-18.2168-22.9709-39.8047-43.383-64.0566-60.6723
			c-2.4995-3.2572-5.5381-7.8873-6.9319-12.653c-2.5757-8.8071,1.5256-10.3985-0.0127-20.8229
			c-1.4797-10.0256-3.5688-11.1438-10.7075-19.4871c-7.0005-8.181-10.4285-9.5125-16.0354-16.6943
			c-5.6064-7.1819-4.8521-5.5164-7.3083-11.4604s-2.5166-12.3163-2.5166-12.3163s-0.0679,12.3268,0.9756,25.028
			s0.2302,14.5441,3.1982,25.7776c2.968,11.2328,2.4172,11.5766,8.6736,19.1541c6.2563,7.5774,15.2351,10.2502,20.0627,13.1119
			c3.1038,1.84,5.8372,5.6646,7.2747,8.0313c-16.9387-11.7609-35.1265-22.026-54.3359-30.598l-0.0027-0.004
			c-0.0413,0.0941-0.0825,0.1693-0.1238,0.2474c-2.8096-1.3169-9.6262-4.7573-15.0708-9.4902
			c-7.0334-6.1134-4.7439-7.1537-11.7915-15.1702c-6.7783-7.7107-9.1611-7.5752-19.7966-10.9354
			c-10.429-3.2951-14.0615-2.6475-22.7612-5.8191c-8.6995-3.1716-7.1436-2.1536-12.4973-5.9083
			c-5.354-3.7547-8.918-9.1104-8.918-9.1104s6.739,10.4569,14.624,20.6558c7.8853,10.1985,8.2136,12.1774,16.9158,20.1391
			c8.7024,7.9614,8.4263,8.5367,17.8936,11.7065c9.467,3.1696,18.5315,1.1726,24.1899,1.0947
			c4.1497-0.0571,10.9421,3.2063,14.2822,4.3798c-0.0376,0.0586-0.075,0.1094-0.113,0.1768
			c10.8862,4.8479,21.478,10.3609,31.71,16.4371c-3.0583-0.1914-9.022-0.9277-12.7371-3.0177
			c-5.3608-3.0157-12.5247-9.7525-23.5745-12.0173c-11.05-2.265-11.1489-1.636-24.4878,0.5361
			c-13.3389,2.1721-14.9009,3.6685-28.8694,8.1523c-13.9688,4.4838-27.0039,9.7827-27.0039,9.7827s6.7839-2.6553,14.2698-3.028
			c7.4861-0.3729,5.3567-0.3262,15.6741,1.5369c10.3167,1.8632,13.3813,4.3027,25.4304,6.9636
			c12.2869,2.7135,14.479,4.0699,25.8213,1.106c11.793-3.0818,11.5022-7.3543,22.0808-8.8394
			c7.4551-1.0466,14.2366,0.4088,17.6008,1.361c19.7275,12.1372,38.0298,26.3981,54.3254,42.1833
			c4.1689,4.0386,8.2043,8.2054,12.1311,12.4677c-3.1304-0.8796-7.7419-2.5198-10.5376-4.8464
			c-4.7017-3.9144-10.4751-11.8046-20.9124-15.9858c-10.4377-4.1812-10.6531-3.5804-24.1782-3.8042
			c-13.5249-0.2239-15.3433,0.9711-29.9214,2.9089c-14.5784,1.9376-28.394,4.8419-28.394,4.8419s7.1704-1.4107,14.6008-0.4532
			c7.4304,0.9576,5.3281,0.6268,15.1206,4.2834c9.792,3.6567,12.3455,6.5974,23.6899,11.3445
			c11.5688,4.841,13.4688,6.5626,25.1785,5.6545c12.1753-0.9441,12.6948-5.1963,23.3757-4.7852
			c5.6243,0.2165,10.6084,1.7415,14.082,3.1381c21.49,23.8089,39.166,50.9258,52.0815,80.4708
			c-2.2383-1.389-7.8882-5.5162-10.2065-10.2312c-3.0146-6.1317-5.543-17.4684-13.9475-25.5176
			c-8.4043-8.0491-8.8386-7.3673-21.7043-11.3861c-12.866-4.0189-15.061-3.0468-29.7568-4.6893
			c-14.6973-1.6426-29.0295-1.8809-29.0295-1.8809s7.4026,0.2429,14.1536,3.4811c6.751,3.2381,4.8638,2.248,12.8506,9.4713
			c7.9863,7.2227,9.313,11.5593,18.3713,20.5581c9.2375,9.177,10.4031,11.8277,21.9609,13.9474
			c12.0173,2.2039,14.1318-2.9008,24.2029,0.5623c6.4875,2.2304,12.3894,8.0997,15.771,11.9966
			c13.9868,34.1522,21.6863,71.3791,21.7043,110.3467c-2.2014-2.636-5.8552-7.7835-6.7283-12.6955
			c-1.304-7.3356-0.5261-20.0436-6.8916-30.9183c-6.366-10.8747-7.0273-10.2748-19.2788-18.1337
			c-12.2515-7.8586-14.842-7.4448-29.7275-13.3013c-14.8853-5.8568-29.8142-10.1252-29.8142-10.1252s7.6736,2.3314,13.7615,7.6505
			c6.0876,5.3195,4.4111,3.7426,10.5889,13.6262c6.1782,9.8836,6.2573,14.8454,13.02,26.9086
			c6.8967,12.3015,7.3159,15.4337,18.7729,20.9159c11.9114,5.7001,15.666,0.8893,25.1609,7.3769
			c5.4714,3.7386,9.0437,8.9368,11.0916,12.6733c-0.5979,46.037-11.9043,89.5762-31.6323,128.3879
			c0.001-0.0098,0.0039-0.0129,0.0034-0.0286c-0.0083,0.0182-0.0159,0.0344-0.0242,0.0525
			c0.0024,0.0016,0.0051,0.0032,0.0071,0.0033c-0.0381,0.0747-0.0745,0.1503-0.1123,0.2249
			c0.0354-0.077,0.0688-0.1495,0.1052-0.2281c-0.3071-0.2034-3.6917-11.5177-1.6707-19.6418
			c2.1265-8.5479,8.8608-21.921,7.5601-36.6912c-1.3005-14.77-2.2461-14.4346-10.873-28.728
			c-8.6267-14.2935-11.4229-15.0724-23.6345-28.4469c-12.2117-13.3744-25.2104-25.0527-25.2104-25.0527
			s6.6179,6.1517,10.2419,14.7831c3.6245,8.6311,2.679,6.1328,4.2554,19.7425c1.5767,13.6096-0.6682,19.0128,0.4751,35.2552
			c1.166,16.5638,0.1196,20.1483,9.0615,31.4962c9.2974,11.7992,15.322,8.3735,21.822,19.8802
			c4.7888,8.4777,5.3435,18.0681,5.3042,22.5331c-12.064,22.6199-26.9976,43.572-44.3594,62.3821
			c2.7686,0.5383,5.532,1.1024,8.29,1.6947c17.5864-19.5577,32.6443-41.298,44.7151-64.7291
			c3.8813-2.9399,9.1973-6.2478,15.2881-8.0815c12.6587-3.811,13.8604,2.3767,28.4834,0.1399
			c14.064-2.1511,16.0903-5.2882,29.1987-15.9729c12.854-10.478,15.4902-15.6292,26.6475-24.0157
			c11.1565-8.3867,8.699-7.2638,17.4133-10.9169c8.7144-3.653,17.4441-3.6952,17.4441-3.6952S828.5483,505.2777,810.9268,506.7517z"
			/>
		<path fill="rgb(102, 0, 0)" d="M228.054,531.6833c-3.8914-15.5658-3.8914-12.4529-3.5022-23.3486
			c0.3892-10.8957,5.0588-20.2356,5.0588-20.2356s-9.3391,17.9006-17.1216,37.3572c-7.7827,19.4565-10.5066,21.4019-14.0085,40.4701
			c-3.5024,19.0681-4.6697,19.0681,0,35.8002c3.2188,11.5345,10.3198,20.8489,16.334,28.3279
			c6.3174-1.1892,12.6772-2.1732,19.0764-2.4575c3.4045-4.9744,7.9036-8.2026,11.2847-18.8655
			c5.0588-15.9541,2.4426-19.4849-3.113-38.1351C236.6147,552.3073,231.9451,547.2478,228.054,531.6833z"/>
		<path fill="rgb(102, 0, 0)" d="M120.8569,617.7489c-19.2341,2.3843-21.3313,4.9738-41.1973,11.5795
			c-19.8662,6.6055-38.2659,14.843-38.2659,14.843s9.5886-4.0966,20.4888-3.8608c10.9004,0.2357,7.7922,0.0581,23.1118,4.804
			c4.7888,1.4835,8.5481,2.9839,12.0022,4.5424c15.9153,2.524,32.0806-1.0453,47.7441-3.9058
			c12.8906-2.652,25.6748-5.776,38.4792-8.8058c-7.002-6.2449-15.6692-13.4348-26.6206-17.1541
			C140.1582,614.2073,140.0923,615.3646,120.8569,617.7489z"/>
		<path fill="rgb(102, 0, 0)" d="M658.449,568.2695c-3.6152-19.0681-6.4275-21.0134-14.4617-40.47
			c-8.0347-19.4565-17.6758-37.3572-17.6758-37.3572s4.8206,9.3387,5.2222,20.2344c0.4019,10.8958,0.4019,7.7828-3.6152,23.3485
			c-4.0171,15.5646-8.8379,20.624-14.4619,38.913c-5.7354,18.6504-8.436,22.1812-3.2139,38.1353
			c3.113,9.5088,7.1438,13.104,10.4727,17.2983c5.8247-1.6187,12.1843-0.8542,18.1484-0.4456
			c1.9087,0.2449,3.8123,0.5151,5.7126,0.8018c5.4241-6.7986,11.0715-14.9353,13.8726-24.6583
			C663.2695,587.3376,662.0645,587.3376,658.449,568.2695z"/>
		<path fill="rgb(102, 0, 0)" d="M738.5776,620.1028c-19.8567-2.3844-19.9248-3.5415-36.8982,2.0422
			c-9.0906,2.9906-16.6514,8.2283-23.0276,13.4125c14.6987,3.4529,29.3323,7.2455,44.125,10.243
			c14.7593,2.8313,29.9426,6.0392,45.002,4.3308c2.3384-0.8994,4.8931-1.7842,7.8218-2.6631
			c15.8152-4.7458,12.6069-4.5681,23.8594-4.804c11.2524-0.2357,21.1511,3.8608,21.1511,3.8608s-18.9951-8.2374-39.5037-14.843
			C760.5986,625.0764,758.4343,622.4871,738.5776,620.1028z"/>
	</g>
	<g>
		<path fill="rgb(102, 0, 0)" d="M428.709,771.4613c-1.5913,0-3.1641-0.0037-4.7554-0.0074c-29.2909-0.3571-58.5818-1.9225-87.6876-5.292
			c-22.093-2.744-44.1861-6.3096-65.502-12.8969c-9.9622-3.2548-19.9374-6.9888-28.5581-13.0801
			c-5.2402-3.7562-10.1103-8.9556-11.0576-15.578c-0.7568-4.5019,1.5432-8.4745,2.8754-12.586
			c7.3014-20.1558,14.6029-40.3097,21.8803-60.4673c1.2804,3.1641,3.3214,6.2726,6.1043,8.4561
			c8.1452,6.6612,18.1925,10.3286,28.0734,13.563c29.2724,8.9094,59.803,12.7155,90.1486,15.5447
			c35.6931,2.9865,71.5897,3.6378,107.3938,2.2093c31.3633-2.0095,63.1336-4.4352,93.3311-13.7703
			c9.1592-3.1918,18.5959-6.7704,25.7753-13.55c3.1641-2.8495,5.366-6.7352,6.2542-10.8615
			c7.6974,21.3751,15.8019,42.6078,23.1478,64.1143c2.424,8.8761-3.7747,17.1157-10.658,21.921
			c-14.8212,10.3378-32.64,14.9951-49.9777,19.1898C527.3322,768.8838,477.8726,771.452,428.709,771.4613L428.709,771.4613z"/>
		<path fill="rgb(102, 0, 0)" d="M250.9373,652.2643c2.4553-5.6805,6.0767-12.0272,3.6211-18.2814
			c-1.9854-4.3853-7.0496-5.6436-11.3572-6.2542c-3.1125-0.2476-6.2158-0.2694-9.3103-0.1318
			c-6.3992,0.2843-12.759,1.2683-19.0764,2.4575c-3.4114,0.6421-6.8105,1.3413-10.1968,2.0227
			c-0.7075,0.151-1.4133,0.3118-2.1204,0.4653c-2.6829,0.5823-5.3623,1.1792-8.0388,1.7896
			c-3.7498,0.855-7.4956,1.7278-11.2385,2.6133c-12.8044,3.0298-25.5886,6.1538-38.4792,8.8058
			c-15.6636,2.8605-31.8289,6.4298-47.7441,3.9058c-0.7629-0.121-1.5256-0.2404-2.2871-0.3901
			c10.9243,16.394,29.2556,25.0426,45.5183,35.0159c-9.7458,19.3749-25.3701,35.9447-44.8059,45.7959
			c-2.0447,1.0363,1.5857,1.0214,2.3721,1.236c1.1694,0.0981,2.3369,0.1462,3.5007,0.1537
			c8.1526,0.0481,16.1887-1.9633,24.0212-4.069c29.8145-8.4097,57.5029-22.9608,87.4229-30.995
			c6.9944-1.4044,15.9722-4.0153,21.3918,2.1779c2.6067-7.1509,5.1899-14.3109,7.7764-21.4692
			c0.8425-2.3318,1.6951-4.6589,2.5388-6.99C246.6016,664.1663,248.7549,658.209,250.9373,652.2643z"/>
		<path fill="rgb(102, 0, 0)" d="M722.7769,645.8005c-14.7927-2.9976-29.4263-6.7902-44.125-10.243
			c-4.1431-0.9733-8.2915-1.9188-12.45-2.812c-2.7581-0.5923-5.5215-1.1564-8.29-1.6947
			c-4.4282-0.8611-8.8704-1.6493-13.3354-2.3228c-1.9004-0.2866-3.804-0.5569-5.7126-0.8018
			c-5.9641-0.4087-12.3237-1.1731-18.1484,0.4456c-1.2952,0.3599-2.5647,0.8342-3.7964,1.4603
			c-3.4602,1.5913-5.1069,5.5695-4.9036,9.1962c0.4441,6.3837,4.5149,11.6387,5.8655,17.7448
			c1.0232,2.7585,2.032,5.5237,3.0408,8.2889c0.4827,1.3235,0.968,2.6458,1.4492,3.97c0.021,0.0579,0.0417,0.1157,0.0627,0.1735
			c0.3604,0.9921,0.7202,1.9845,1.0801,2.9767c3.2173,8.8738,6.4236,17.7527,9.7622,26.5715
			c5.1809-5.8508,14.155-3.5564,20.8718-2.1445c20.1873,5.0643,39.1716,13.7646,58.6372,20.9272
			c16.1165,6.0117,32.4734,12.166,49.7002,13.9275c1.2952,0.0519,2.6089,0.124,3.9226,0.1313
			c2.1836,0.0129,4.3855-0.1536,6.4395-0.8918c-19.7432-10.1047-33.8059-28.09-45.574-46.3435
			c18.4109-5.3994,34.5088-19.0382,45.2224-34.9141c-1.5703,0.2922-3.1431,0.5071-4.7168,0.6855
			C752.7195,651.8397,737.5361,648.6318,722.7769,645.8005z"/>
	</g>
</g>
</svg>
